<svg width="30" height="31" viewBox="0 0 30 31" fill="none" xmlns="http://www.w3.org/2000/svg">
<g clip-path="url(#clip0_40_1263)">
<path d="M15.0751 0.897461C12.9438 0.897461 11.2161 2.58529 11.2161 4.66728C11.2161 6.74927 12.9438 8.4371 15.0751 8.4371C17.2063 8.4371 18.9341 6.74927 18.9341 4.66728C18.9341 2.58529 17.2063 0.897461 15.0751 0.897461ZM15.0751 6.36445C14.1172 6.36445 13.3378 5.60312 13.3378 4.66735C13.3378 3.73157 14.1172 2.97024 15.0751 2.97024C16.033 2.97024 16.8123 3.73157 16.8123 4.66735C16.8123 5.60312 16.033 6.36445 15.0751 6.36445ZM17.8154 9.6225H12.1821C9.47576 9.6225 7.18933 12.0095 7.18933 14.8352C7.18933 15.4076 7.66434 15.8715 8.25017 15.8715C8.83614 15.8715 9.31101 15.4076 9.31101 14.8352C9.31101 13.1625 10.6526 11.6952 12.1821 11.6952H17.8154C19.3568 11.6952 20.709 13.1453 20.709 14.7982C20.709 15.3706 21.1839 15.8345 21.7699 15.8345C22.3557 15.8345 22.8307 15.3706 22.8307 14.7982C22.8307 11.9927 20.5339 9.6225 17.8154 9.6225Z" fill="#FFCD00"/>
<path d="M15.0734 15.5449C12.9955 15.5449 11.3109 17.1905 11.3109 19.2205C11.3109 21.2504 12.9955 22.8961 15.0734 22.8961C17.1514 22.8961 18.836 21.2505 18.836 19.2205C18.836 17.1905 17.1514 15.5449 15.0734 15.5449ZM15.0734 20.8234C14.1687 20.8234 13.4326 20.1044 13.4326 19.2205C13.4326 18.3367 14.1687 17.6176 15.0734 17.6176C15.9782 17.6176 16.7143 18.3366 16.7143 19.2205C16.7143 20.1044 15.9782 20.8234 15.0734 20.8234ZM20.641 21.2361C20.641 22.8498 21.98 24.1579 23.6319 24.1579C25.2837 24.1579 26.6229 22.8498 26.6229 21.2361C26.6229 19.6225 25.2837 18.3144 23.6319 18.3144C21.98 18.3144 20.641 19.6225 20.641 21.2361ZM23.6319 20.387C24.1111 20.387 24.5011 20.7679 24.5011 21.2361C24.5011 21.7044 24.1111 22.0852 23.6319 22.0852C23.1526 22.0852 22.7627 21.7043 22.7627 21.2361C22.7627 20.7679 23.1526 20.387 23.6319 20.387ZM25.7558 24.7532H20.6607C20.5793 24.7532 20.5009 24.764 20.4247 24.781C19.6482 24.242 18.7249 23.9241 17.7452 23.9241H12.2528C11.2844 23.9241 10.3716 24.2384 9.60184 24.7716C9.54114 24.761 9.47952 24.7533 9.4157 24.7533H4.13275C1.92441 24.7533 0.0585938 26.7259 0.0585938 29.0607C0.0585938 29.6332 0.533598 30.0971 1.11943 30.0971C1.7054 30.0971 2.18027 29.6332 2.18027 29.0607C2.18027 28.0037 2.98213 26.8259 4.13268 26.8259H7.86392C7.53123 27.5251 7.3587 28.2868 7.35837 29.0579C7.35837 29.6303 7.83324 30.0942 8.41921 30.0942C9.00504 30.0942 9.48005 29.6303 9.48005 29.0579C9.48005 27.4273 10.7756 25.9968 12.2528 25.9968H17.7452C19.2339 25.9968 20.5399 27.4222 20.5399 29.0472C20.5399 29.6196 21.0149 30.0835 21.6007 30.0835C22.1867 30.0835 22.6616 29.6196 22.6616 29.0472C22.6616 28.2571 22.4789 27.5021 22.1567 26.8259H25.7557C26.8165 26.8259 27.8196 27.9148 27.8196 29.0666C27.8196 29.639 28.2945 30.1029 28.8804 30.1029C29.4663 30.1029 29.9413 29.639 29.9413 29.0666C29.9414 26.7688 27.9855 24.7532 25.7558 24.7532ZM6.37496 18.3144C4.72317 18.3144 3.38402 19.6225 3.38402 21.2361C3.38402 22.8498 4.72317 24.1579 6.37496 24.1579C8.02675 24.1579 9.36589 22.8498 9.36589 21.2361C9.36583 19.6225 8.02675 18.3144 6.37496 18.3144ZM6.37496 22.0852C5.8957 22.0852 5.50577 21.7043 5.50577 21.2361C5.50577 20.7679 5.8957 20.387 6.37496 20.387C6.85421 20.387 7.24415 20.7679 7.24415 21.2361C7.24415 21.7044 6.85421 22.0852 6.37496 22.0852Z" fill="#FFCD00"/>
</g>
<defs>
<clipPath id="clip0_40_1263">
<rect width="30" height="31" fill="white"/>
</clipPath>
</defs>
</svg>
