<svg width="30" height="30" viewBox="0 0 30 30" fill="none" xmlns="http://www.w3.org/2000/svg">
<g clip-path="url(#clip0_40_1220)">
<path d="M23.548 0.933887L28.4391 1.56066L29.0659 6.45178C29.1976 7.47932 29.092 8.52338 28.7573 9.50377C28.4227 10.4842 27.8677 11.3748 27.1352 12.1074L16.8278 22.4149L7.58496 13.1721L17.8924 2.86461C18.625 2.13208 19.5156 1.57717 20.496 1.24248C21.4764 0.907788 22.5205 0.802222 23.548 0.933887Z" stroke="#FFCD00" stroke-width="1.75781" stroke-miterlimit="10" stroke-linecap="round" stroke-linejoin="round"/>
<path d="M13.9655 6.79173L11.6418 6.16735C10.9703 5.9869 10.263 5.98653 9.59129 6.16627C8.91956 6.34601 8.30702 6.69952 7.81533 7.19122L3.05225 11.9543L7.585 13.1723L13.9655 6.79173ZM23.2083 16.0345L23.8327 18.3583C24.0131 19.0298 24.0135 19.737 23.8338 20.4088C23.654 21.0805 23.3005 21.693 22.8088 22.1847L18.0457 26.9478L16.8278 22.415L23.2083 16.0345Z" stroke="#FFCD00" stroke-width="1.75781" stroke-miterlimit="10" stroke-linecap="round" stroke-linejoin="round"/>
<path d="M22.1528 10.1694C23.4354 10.1694 24.4751 9.12969 24.4751 7.84715C24.4751 6.56461 23.4354 5.5249 22.1528 5.5249C20.8703 5.5249 19.8306 6.56461 19.8306 7.84715C19.8306 9.12969 20.8703 10.1694 22.1528 10.1694Z" stroke="#FFCD00" stroke-width="1.75781" stroke-miterlimit="10" stroke-linecap="round" stroke-linejoin="round"/>
<path d="M0.878906 29.121L7.13326 22.8667M12.3468 8.69092L21.309 17.6532M1.64045 23.3577L4.67268 20.3255M6.64225 28.3595L9.67447 25.3273M12.2759 23.1508L6.84914 17.7241C6.60152 17.4765 6.60152 17.075 6.84914 16.8275L9.04482 14.6318L15.3681 20.9551L13.1725 23.1508C12.9249 23.3984 12.5235 23.3984 12.2759 23.1508Z" stroke="#FFCD00" stroke-width="1.75781" stroke-miterlimit="10" stroke-linecap="round" stroke-linejoin="round"/>
</g>
<defs>
<clipPath id="clip0_40_1220">
<rect width="30" height="30" fill="white"/>
</clipPath>
</defs>
</svg>
