<svg width="29" height="30" viewBox="0 0 29 30" fill="none" xmlns="http://www.w3.org/2000/svg">
<g clip-path="url(#clip0_40_1285)">
<path d="M27.4646 13.7988H26.3732C25.8181 8.04454 21.3195 3.45558 15.6789 2.89097V1.78577C15.6789 1.46717 15.5547 1.16161 15.3337 0.936325C15.1126 0.711038 14.8129 0.584473 14.5003 0.584473C14.1877 0.584473 13.8879 0.711038 13.6669 0.936325C13.4459 1.16161 13.3217 1.46717 13.3217 1.78577V2.89217C7.68107 3.46158 3.18246 8.04814 2.62617 13.7988H1.53599C1.22342 13.7988 0.923642 13.9253 0.702617 14.1506C0.481592 14.3759 0.357422 14.6815 0.357422 15.0001C0.357422 15.3187 0.481592 15.6242 0.702617 15.8495C0.923642 16.0748 1.22342 16.2014 1.53599 16.2014H2.62735C2.88547 18.7756 3.93957 21.1995 5.63742 23.1232C5.37107 23.5978 5.13064 24.0855 4.93971 24.6008C4.08407 26.9386 5.88728 29.4156 8.33046 29.4156H20.6701C23.0944 29.4156 24.9224 26.9578 24.0585 24.596C23.867 24.0886 23.6373 23.597 23.3714 23.1256C25.0778 21.2075 26.1306 18.7788 26.3732 16.2014H27.4646C27.7771 16.2014 28.0769 16.0748 28.2979 15.8495C28.519 15.6242 28.6431 15.3187 28.6431 15.0001C28.6431 14.6815 28.519 14.3759 28.2979 14.1506C28.0769 13.9253 27.7771 13.7988 27.4646 13.7988ZM20.6689 27.013H8.32928C7.51017 27.013 6.87492 26.1866 7.14599 25.443C8.28685 22.3616 11.1732 20.2894 14.3341 20.2269H14.3765L14.406 20.2281H14.4414C18.102 20.3374 20.7656 22.5046 21.851 25.4381C22.1268 26.1938 21.4845 27.013 20.6689 27.013ZM17.1674 15.6151C16.9458 16.7744 16.0006 17.8015 14.4119 17.8243C14.0174 17.8102 13.6306 17.7089 13.2782 17.5275C12.9258 17.3461 12.6163 17.0889 12.371 16.7736C12.1257 16.4583 11.9504 16.0926 11.8574 15.7015C11.7643 15.3105 11.7557 14.9035 11.832 14.5087C11.9391 13.9744 12.1985 13.4842 12.5778 13.0995C12.9571 12.7149 13.4393 12.4529 13.964 12.3464C14.4038 12.2564 14.8585 12.2786 15.2878 12.411C15.7171 12.5434 16.1076 12.7819 16.4247 13.1053C16.7417 13.4287 16.9754 13.8269 17.105 14.2646C17.2346 14.7022 17.256 15.1658 17.1674 15.6139V15.6151ZM21.9524 21.1363C20.9095 20.0114 19.6369 19.1338 18.2246 18.5655C18.8629 17.869 19.2984 17.005 19.4821 16.0704V16.0644C20.1598 12.4065 17.033 9.29269 13.5256 9.98584C11.5185 10.3654 9.90857 11.998 9.5161 14.057C9.37711 14.7973 9.39733 15.5594 9.57537 16.2909C9.75341 17.0224 10.085 17.7058 10.5474 18.294C10.6181 18.3853 10.71 18.4538 10.7878 18.5403C9.37163 19.1141 8.09685 19.9988 7.05407 21.1315C5.93578 19.7136 5.22656 18.0066 5.00571 16.2014H5.94857C6.26114 16.2014 6.56092 16.0748 6.78194 15.8495C7.00297 15.6242 7.12714 15.3187 7.12714 15.0001C7.12714 14.6815 7.00297 14.3759 6.78194 14.1506C6.56092 13.9253 6.26114 13.7988 5.94857 13.7988H5.00453C5.26955 11.6441 6.23094 9.6407 7.73698 8.10475C9.24301 6.5688 11.2079 5.58774 13.3217 5.31639V6.28464C13.3217 6.60324 13.4459 6.9088 13.6669 7.13408C13.8879 7.35937 14.1877 7.48593 14.5003 7.48593C14.8129 7.48593 15.1126 7.35937 15.3337 7.13408C15.5547 6.9088 15.6789 6.60324 15.6789 6.28464V5.31519C17.7932 5.5856 19.7588 6.56651 21.265 8.10289C22.7713 9.63926 23.7322 11.6435 23.996 13.7988H23.0508C22.7382 13.7988 22.4385 13.9253 22.2174 14.1506C21.9964 14.3759 21.8722 14.6815 21.8722 15.0001C21.8722 15.3187 21.9964 15.6242 22.2174 15.8495C22.4385 16.0748 22.7382 16.2014 23.0508 16.2014H23.996C23.7864 18.0102 23.0778 19.7214 21.9524 21.1363Z" fill="#FFCD00"/>
</g>
<defs>
<clipPath id="clip0_40_1285">
<rect width="29" height="30" fill="white"/>
</clipPath>
</defs>
</svg>
